<?xml version="1.0" encoding="UTF-8" standalone="no"?>
<!-- Generator: Adobe Illustrator 15.0.0, SVG Export Plug-In . SVG Version: 6.00 Build 0)  -->

<svg
   xmlns:dc="http://purl.org/dc/elements/1.1/"
   xmlns:cc="http://creativecommons.org/ns#"
   xmlns:rdf="http://www.w3.org/1999/02/22-rdf-syntax-ns#"
   xmlns:svg="http://www.w3.org/2000/svg"
   xmlns="http://www.w3.org/2000/svg"
   xmlns:sodipodi="http://sodipodi.sourceforge.net/DTD/sodipodi-0.dtd"
   xmlns:inkscape="http://www.inkscape.org/namespaces/inkscape"
   version="1.1"
   id="Layer_1"
   x="0px"
   y="0px"
   width="425.38034"
   height="256.1091"
   viewBox="0 0 425.38034 256.1091"
   enable-background="new 0 0 300 200"
   xml:space="preserve"
   inkscape:version="0.48.3.1 r9886"
   sodipodi:docname="diagram.svg"><metadata
   id="metadata195"><rdf:RDF><cc:Work
       rdf:about=""><dc:format>image/svg+xml</dc:format><dc:type
         rdf:resource="http://purl.org/dc/dcmitype/StillImage" /></cc:Work></rdf:RDF></metadata><defs
   id="defs193" /><sodipodi:namedview
   pagecolor="#ffffff"
   bordercolor="#666666"
   borderopacity="1"
   objecttolerance="10"
   gridtolerance="10"
   guidetolerance="10"
   inkscape:pageopacity="0"
   inkscape:pageshadow="2"
   inkscape:window-width="1280"
   inkscape:window-height="786"
   id="namedview191"
   showgrid="false"
   fit-margin-top="0"
   fit-margin-left="0"
   fit-margin-right="0"
   fit-margin-bottom="0"
   inkscape:zoom="1.18"
   inkscape:cx="69.469417"
   inkscape:cy="128.05527"
   inkscape:window-x="0"
   inkscape:window-y="14"
   inkscape:window-maximized="0"
   inkscape:current-layer="Layer_1" />
<g
   id="g3"
   transform="matrix(2,0,0,2,-87.310656,-71.946904)">
	<g
   id="g5">
		<path
   d="M 179.345,83.62 C 176.26,76.674 171.08,71.179 164.817,67.628 v -8.783 h -51.343 v 7.019 c -7.852,3.333 -14.447,9.527 -18.101,17.757 l -1.367,-0.496 1.045,5.891 4.579,-3.851 -1.431,-0.519 c 3.168,-7.008 8.681,-12.38 15.274,-15.497 v 7.032 h 51.343 v -5.054 c 4.999,3.203 9.126,7.819 11.702,13.519 l -1.4,0.508 4.58,3.85 1.045,-5.891 -1.398,0.507 z"
   id="path7"
   inkscape:connector-curvature="0"
   style="fill:#ffffff" />
		<path
   d="m 195.323,99.453 v -8.885 h -34.865 v 8.885 h 19.193 c 0.461,2.326 0.73,4.69 0.809,7.073 l -1.465,-0.037 2.861,5.254 3.119,-5.104 -1.512,-0.038 c -0.07,-2.405 -0.325,-4.793 -0.761,-7.147 h 12.621 z"
   id="path9"
   inkscape:connector-curvature="0"
   style="fill:#ffffff" />
		<path
   d="m 256.062,94.016 c -1.6,-17.027 -9.734,-32.412 -22.904,-43.32 -13.17,-10.907 -29.797,-16.037 -46.828,-14.435 -13.466,1.262 -25.911,6.612 -36.058,15.469 l -1.036,-1.099 -1.716,5.731 5.821,-1.379 -1.01,-1.07 c 9.654,-8.394 21.482,-13.466 34.279,-14.666 16.23,-1.521 32.08,3.361 44.633,13.759 12.554,10.397 20.307,25.061 21.83,41.291 3.148,33.498 -21.547,63.312 -55.047,66.461 -9.408,0.881 -18.827,-0.424 -27.559,-3.772 v -15.621 h -62.646 v 17.287 h 58.831 c 8.08,3.54 16.797,5.376 25.626,5.376 2.005,0 4.017,-0.094 6.026,-0.283 35.15,-3.304 61.059,-34.584 57.758,-69.729 z"
   id="path11"
   inkscape:connector-curvature="0"
   style="fill:#ffffff" />
		<path
   d="m 117.832,99.456 v -8.89 H 64.229 v 8.89 h 25.639 c -0.983,3.645 -1.519,7.396 -1.602,11.188 l -1.479,0.048 3.159,5.08 2.821,-5.275 -1.499,0.049 c 0.096,-3.766 0.669,-7.486 1.714,-11.09 h 24.85 z"
   id="path13"
   inkscape:connector-curvature="0"
   style="fill:#ffffff" />
		<path
   d="m 158.429,132.231 -5.936,-0.748 0.58,1.381 c -12.28,4.165 -25.963,1.054 -35.241,-7.867 v -6.941 H 58.098 C 42.593,101.02 42.786,74.556 59.017,57.766 74.71,41.531 99.686,39.728 117.488,53.393 l -0.955,1.106 5.877,1.121 -1.968,-5.65 -0.991,1.148 C 100.428,36.408 73.664,38.299 56.86,55.68 39.188,73.96 39.319,102.975 56.862,121.118 v 5.846 h 17.65 c 3.383,11.897 13.051,21.316 25.2,24.23 l -0.238,1.465 5.595,-2.119 -4.633,-3.786 -0.239,1.469 C 89.478,145.572 80.894,137.377 77.627,126.964 h 37.923 c 7.132,6.961 16.708,10.746 26.462,10.746 4.105,0 8.24,-0.679 12.234,-2.061 l 0.568,1.35 3.615,-4.768 z"
   id="path15"
   inkscape:connector-curvature="0"
   style="fill:#ffffff" />
		<path
   d="M 200.187,113.866 H 175.19 c -0.546,-2.42 -0.854,-4.784 -0.945,-7.199 l 1.472,0.034 -2.871,-5.248 -3.11,5.11 1.506,0.035 c 0.082,2.445 0.366,4.836 0.877,7.268 h -11.66 v 2.965 c -11.361,-7.05 -19.087,-19.267 -20.025,-33.465 l 1.467,-0.011 -3.031,-5.158 -2.951,5.204 1.511,-0.012 c 0.993,15.925 9.958,29.543 23.03,36.937 v 3.927 c -16.092,2.301 -32.478,-4.747 -41.761,-19.029 l 1.274,-0.727 -5.164,-3.021 -0.034,5.983 1.319,-0.752 c 8.684,13.47 23.244,20.984 38.334,20.984 2.006,0 4.02,-0.149 6.031,-0.418 v 3.879 h 28.068 c -2.373,6.008 -6.535,11.154 -12.05,14.758 l -0.692,-1.278 -3.131,5.099 5.98,0.162 -0.725,-1.338 c 6.482,-4.169 11.293,-10.272 13.83,-17.402 h 8.447 v -17.287 z"
   id="path17"
   inkscape:connector-curvature="0"
   style="fill:#ffffff" />
	</g>
	<g
   id="g19">
		<g
   id="g21">
			<path
   d="m 126.139,64.401 1.093,-3.521 h 0.741 l 1.099,3.521 1.226,-3.521 h 0.889 l -1.708,4.887 h -0.818 l -1.029,-3.346 h -0.057 l -1.028,3.346 h -0.819 L 124.02,60.88 h 0.89 l 1.229,3.521 z"
   id="path23"
   inkscape:connector-curvature="0" />
			<path
   d="m 132.026,60.88 h 0.826 v 4.894 h -0.826 V 60.88 z"
   id="path25"
   inkscape:connector-curvature="0" />
			<path
   d="M 138.06,64.534 V 60.88 h 0.826 v 4.894 h -0.896 l -2.771,-3.569 v 3.569 h -0.826 V 60.88 h 0.826 l 2.841,3.654 z"
   id="path27"
   inkscape:connector-curvature="0" />
			<path
   d="m 142.351,61.636 v 4.138 h -0.826 v -4.138 h -1.484 V 60.88 h 3.795 v 0.756 h -1.485 z"
   id="path29"
   inkscape:connector-curvature="0" />
			<path
   d="m 148.427,60.88 v 0.777 h -2.611 v 1.295 h 2.346 v 0.735 h -2.346 v 1.31 h 2.695 v 0.776 H 144.99 V 60.88 h 3.437 z"
   id="path31"
   inkscape:connector-curvature="0" />
			<path
   d="m 153.677,62.47 c 0,0.807 -0.353,1.316 -1.057,1.525 l 1.28,1.778 h -1.05 l -1.169,-1.646 h -1.085 v 1.646 H 149.77 V 60.88 h 1.82 c 0.746,0 1.281,0.127 1.603,0.379 0.323,0.252 0.484,0.655 0.484,1.211 z m -1.1,0.693 c 0.168,-0.145 0.252,-0.377 0.252,-0.697 0,-0.319 -0.086,-0.539 -0.259,-0.658 -0.173,-0.119 -0.48,-0.178 -0.924,-0.178 h -1.05 v 1.75 h 1.029 c 0.468,0 0.784,-0.072 0.952,-0.217 z"
   id="path33"
   inkscape:connector-curvature="0" />
			<path
   d="m 119.205,69.921 c 0.471,0.427 0.707,1.021 0.707,1.781 0,0.761 -0.229,1.363 -0.687,1.807 -0.458,0.444 -1.157,0.664 -2.1,0.664 h -1.624 V 69.28 h 1.68 c 0.878,0 1.552,0.213 2.024,0.641 z m -0.126,1.803 c 0,-1.12 -0.643,-1.68 -1.926,-1.68 h -0.825 v 3.353 h 0.917 c 0.592,0 1.046,-0.142 1.361,-0.424 0.315,-0.283 0.473,-0.699 0.473,-1.249 z"
   id="path35"
   inkscape:connector-curvature="0" />
			<path
   d="m 124.469,69.28 v 0.777 h -2.61 v 1.295 h 2.344 v 0.734 h -2.344 v 1.31 h 2.694 v 0.776 h -3.521 V 69.28 h 3.437 z"
   id="path37"
   inkscape:connector-curvature="0" />
			<path
   d="m 129.117,69.708 c 0.341,0.284 0.511,0.723 0.511,1.315 0,0.592 -0.174,1.026 -0.521,1.302 -0.347,0.276 -0.881,0.413 -1.6,0.413 h -0.867 v 1.435 h -0.826 V 69.28 h 1.68 c 0.741,0 1.282,0.143 1.623,0.428 z m -0.585,2.02 c 0.166,-0.176 0.248,-0.432 0.248,-0.771 0,-0.339 -0.104,-0.577 -0.314,-0.718 -0.21,-0.141 -0.539,-0.21 -0.986,-0.21 h -0.84 v 1.96 h 0.959 c 0.457,0 0.767,-0.088 0.933,-0.261 z"
   id="path39"
   inkscape:connector-curvature="0" />
			<path
   d="m 134.618,70.869 c 0,0.808 -0.352,1.316 -1.057,1.526 l 1.281,1.777 h -1.05 l -1.169,-1.645 h -1.085 v 1.645 h -0.826 V 69.28 h 1.819 c 0.747,0 1.281,0.126 1.604,0.378 0.323,0.252 0.483,0.655 0.483,1.211 z m -1.097,0.693 c 0.168,-0.145 0.252,-0.377 0.252,-0.696 0,-0.32 -0.087,-0.539 -0.26,-0.658 -0.172,-0.119 -0.48,-0.179 -0.924,-0.179 h -1.05 v 1.75 h 1.028 c 0.467,0 0.786,-0.072 0.954,-0.217 z"
   id="path41"
   inkscape:connector-curvature="0" />
			<path
   d="m 139.498,69.28 v 0.777 h -2.61 v 1.295 h 2.344 v 0.734 h -2.344 v 1.31 h 2.694 v 0.776 h -3.521 V 69.28 h 3.437 z"
   id="path43"
   inkscape:connector-curvature="0" />
			<path
   d="m 141.766,70.096 c -0.145,0.114 -0.217,0.263 -0.217,0.444 0,0.181 0.077,0.326 0.231,0.431 0.153,0.104 0.481,0.218 0.982,0.34 0.502,0.121 0.881,0.292 1.135,0.511 0.254,0.219 0.381,0.543 0.381,0.97 0,0.427 -0.16,0.773 -0.482,1.04 -0.322,0.266 -0.744,0.398 -1.268,0.398 -0.766,0 -1.443,-0.264 -2.037,-0.791 l 0.519,-0.623 c 0.495,0.43 1.008,0.645 1.54,0.645 0.266,0 0.477,-0.058 0.633,-0.172 0.156,-0.115 0.235,-0.266 0.235,-0.455 0,-0.189 -0.073,-0.336 -0.221,-0.441 -0.148,-0.105 -0.4,-0.2 -0.759,-0.287 -0.359,-0.086 -0.633,-0.165 -0.82,-0.238 -0.186,-0.072 -0.352,-0.166 -0.496,-0.283 -0.289,-0.219 -0.434,-0.546 -0.434,-0.979 0,-0.435 0.156,-0.783 0.469,-1.047 0.312,-0.263 0.713,-0.396 1.203,-0.396 0.663,0 1.26,0.185 1.793,0.553 l -0.463,0.658 c -0.4,-0.299 -0.85,-0.447 -1.344,-0.447 -0.242,-0.002 -0.436,0.054 -0.58,0.169 z"
   id="path45"
   inkscape:connector-curvature="0" />
			<path
   d="m 146.399,70.096 c -0.145,0.114 -0.217,0.263 -0.217,0.444 0,0.181 0.077,0.326 0.23,0.431 0.154,0.104 0.482,0.218 0.984,0.34 0.501,0.121 0.879,0.292 1.134,0.511 0.254,0.219 0.382,0.543 0.382,0.97 0,0.427 -0.162,0.773 -0.483,1.04 -0.322,0.266 -0.745,0.398 -1.267,0.398 -0.766,0 -1.445,-0.264 -2.037,-0.791 l 0.518,-0.623 c 0.494,0.43 1.008,0.645 1.54,0.645 0.267,0 0.478,-0.058 0.634,-0.172 0.156,-0.115 0.234,-0.266 0.234,-0.455 0,-0.189 -0.074,-0.336 -0.221,-0.441 -0.147,-0.105 -0.4,-0.2 -0.76,-0.287 -0.359,-0.086 -0.633,-0.165 -0.818,-0.238 -0.188,-0.072 -0.353,-0.166 -0.498,-0.283 -0.289,-0.219 -0.434,-0.546 -0.434,-0.979 0,-0.435 0.156,-0.783 0.469,-1.047 0.312,-0.263 0.715,-0.396 1.205,-0.396 0.662,0 1.26,0.185 1.791,0.553 l -0.461,0.658 c -0.402,-0.299 -0.85,-0.447 -1.345,-0.447 -0.242,-0.002 -0.435,0.054 -0.58,0.169 z"
   id="path47"
   inkscape:connector-curvature="0" />
			<path
   d="m 150.11,69.28 h 0.826 v 4.893 H 150.11 V 69.28 z"
   id="path49"
   inkscape:connector-curvature="0" />
			<path
   d="m 156.452,73.498 c -0.495,0.483 -1.106,0.724 -1.834,0.724 -0.729,0 -1.34,-0.24 -1.834,-0.724 -0.495,-0.483 -0.742,-1.085 -0.742,-1.806 0,-0.722 0.247,-1.324 0.742,-1.807 0.494,-0.482 1.105,-0.725 1.834,-0.725 0.728,0 1.339,0.242 1.834,0.725 0.494,0.482 0.741,1.085 0.741,1.807 0,0.721 -0.247,1.323 -0.741,1.806 z m -0.605,-3.062 c -0.334,-0.346 -0.744,-0.519 -1.229,-0.519 -0.486,0 -0.896,0.173 -1.229,0.519 -0.334,0.345 -0.501,0.765 -0.501,1.257 0,0.492 0.167,0.91 0.501,1.256 0.333,0.346 0.742,0.518 1.229,0.518 0.484,0 0.895,-0.172 1.229,-0.518 0.333,-0.346 0.5,-0.764 0.5,-1.256 0,-0.492 -0.167,-0.913 -0.5,-1.257 z"
   id="path51"
   inkscape:connector-curvature="0" />
			<path
   d="M 161.968,72.935 V 69.28 h 0.826 v 4.893 h -0.896 l -2.771,-3.569 v 3.569 H 158.3 V 69.28 h 0.826 l 2.842,3.655 z"
   id="path53"
   inkscape:connector-curvature="0" />
		</g>
		<g
   id="g55">
			<path
   d="m 165.719,92.558 -0.007,0.771 h -2.43 v 1.345 h 2.311 v 0.762 h -2.311 v 2.017 h -0.826 v -4.894 h 3.263 z"
   id="path57"
   inkscape:connector-curvature="0" />
			<path
   d="m 169.128,92.558 2.155,4.894 h -0.91 l -0.497,-1.112 h -2.345 l -0.476,1.112 h -0.883 l 2.156,-4.894 h 0.8 z m 0.42,3.017 -0.841,-1.883 -0.833,1.883 h 1.674 z"
   id="path59"
   inkscape:connector-curvature="0" />
			<path
   d="m 174.118,93.313 v 4.138 h -0.826 v -4.138 h -1.484 v -0.756 h 3.795 v 0.756 h -1.485 z"
   id="path61"
   inkscape:connector-curvature="0" />
			<path
   d="m 176.757,92.558 h 0.826 v 4.894 h -0.826 v -4.894 z"
   id="path63"
   inkscape:connector-curvature="0" />
			<path
   d="m 182.393,95.071 h 0.826 v 1.673 c -0.462,0.509 -1.122,0.763 -1.981,0.763 -0.723,0 -1.328,-0.238 -1.816,-0.714 -0.488,-0.476 -0.731,-1.077 -0.731,-1.806 0,-0.729 0.249,-1.335 0.745,-1.82 0.498,-0.485 1.098,-0.729 1.803,-0.729 0.705,0 1.291,0.206 1.758,0.617 l -0.441,0.629 c -0.191,-0.162 -0.385,-0.275 -0.578,-0.339 -0.193,-0.064 -0.418,-0.095 -0.676,-0.095 -0.494,0 -0.909,0.16 -1.245,0.479 -0.336,0.319 -0.505,0.739 -0.505,1.261 0,0.52 0.164,0.938 0.49,1.252 0.327,0.315 0.723,0.473 1.188,0.473 0.464,0 0.852,-0.1 1.165,-0.301 v -1.343 z"
   id="path65"
   inkscape:connector-curvature="0" />
			<path
   d="m 188.405,92.552 v 2.778 c 0,0.704 -0.193,1.247 -0.58,1.628 -0.389,0.38 -0.877,0.57 -1.467,0.57 -0.591,0 -1.086,-0.19 -1.484,-0.57 -0.398,-0.381 -0.599,-0.909 -0.599,-1.586 v -2.82 h 0.833 v 2.709 c 0,0.457 0.111,0.82 0.332,1.088 0.223,0.269 0.524,0.402 0.907,0.402 0.382,0 0.684,-0.129 0.903,-0.389 0.219,-0.259 0.328,-0.614 0.328,-1.066 v -2.744 h 0.827 z"
   id="path67"
   inkscape:connector-curvature="0" />
			<path
   d="m 193.242,92.558 v 0.777 h -2.61 v 1.295 h 2.344 v 0.735 h -2.344 v 1.31 h 2.694 v 0.776 h -3.521 v -4.894 h 3.437 z"
   id="path69"
   inkscape:connector-curvature="0" />
		</g>
		<g
   id="g71">
			<path
   d="m 113.698,144.967 c 0,0.808 -0.353,1.316 -1.057,1.526 l 1.28,1.777 h -1.05 l -1.169,-1.645 h -1.085 v 1.645 h -0.826 v -4.893 h 1.82 c 0.746,0 1.281,0.126 1.603,0.378 0.323,0.253 0.484,0.656 0.484,1.212 z m -1.098,0.693 c 0.168,-0.145 0.252,-0.377 0.252,-0.696 0,-0.32 -0.087,-0.539 -0.26,-0.658 -0.172,-0.119 -0.48,-0.179 -0.924,-0.179 h -1.05 v 1.75 h 1.029 c 0.467,0 0.785,-0.072 0.953,-0.217 z"
   id="path73"
   inkscape:connector-curvature="0" />
			<path
   d="m 118.577,143.378 v 0.777 h -2.61 v 1.295 h 2.345 v 0.734 h -2.345 v 1.31 h 2.694 v 0.776 h -3.521 v -4.893 h 3.437 z"
   id="path75"
   inkscape:connector-curvature="0" />
			<path
   d="m 123.624,144.019 c 0.472,0.427 0.707,1.021 0.707,1.781 0,0.761 -0.229,1.363 -0.686,1.807 -0.457,0.444 -1.158,0.664 -2.101,0.664 h -1.624 v -4.893 h 1.681 c 0.878,0 1.552,0.213 2.023,0.641 z m -0.125,1.802 c 0,-1.12 -0.643,-1.68 -1.926,-1.68 h -0.826 v 3.353 h 0.918 c 0.592,0 1.046,-0.142 1.361,-0.424 0.315,-0.282 0.473,-0.698 0.473,-1.249 z"
   id="path77"
   inkscape:connector-curvature="0" />
			<path
   d="m 129.44,143.371 v 2.778 c 0,0.705 -0.193,1.248 -0.58,1.628 -0.388,0.38 -0.877,0.571 -1.467,0.571 -0.59,0 -1.085,-0.191 -1.484,-0.571 -0.398,-0.38 -0.598,-0.909 -0.598,-1.585 v -2.821 h 0.832 v 2.709 c 0,0.458 0.111,0.82 0.333,1.089 0.222,0.268 0.524,0.402 0.907,0.402 0.382,0 0.684,-0.13 0.902,-0.389 0.219,-0.26 0.329,-0.615 0.329,-1.067 v -2.744 h 0.826 z"
   id="path79"
   inkscape:connector-curvature="0" />
			<path
   d="m 132.955,147.522 c 0.284,0 0.53,-0.049 0.735,-0.145 0.205,-0.096 0.42,-0.248 0.645,-0.458 l 0.531,0.546 c -0.518,0.574 -1.146,0.861 -1.887,0.861 -0.739,0 -1.354,-0.238 -1.841,-0.715 -0.487,-0.475 -0.731,-1.077 -0.731,-1.805 0,-0.729 0.248,-1.336 0.746,-1.82 0.496,-0.486 1.124,-0.729 1.883,-0.729 0.758,0 1.392,0.28 1.9,0.84 l -0.525,0.574 c -0.233,-0.224 -0.453,-0.381 -0.661,-0.469 -0.208,-0.089 -0.452,-0.133 -0.731,-0.133 -0.495,0 -0.91,0.16 -1.246,0.479 -0.336,0.32 -0.504,0.729 -0.504,1.226 0,0.497 0.166,0.913 0.5,1.246 0.334,0.333 0.729,0.502 1.186,0.502 z"
   id="path81"
   inkscape:connector-curvature="0" />
			<path
   d="m 139.353,143.378 v 0.777 h -2.61 v 1.295 h 2.345 v 0.734 h -2.345 v 1.31 h 2.694 v 0.776 h -3.521 v -4.893 h 3.437 z"
   id="path83"
   inkscape:connector-curvature="0" />
			<path
   d="m 144.4,144.019 c 0.472,0.427 0.707,1.021 0.707,1.781 0,0.761 -0.229,1.363 -0.687,1.807 -0.458,0.444 -1.157,0.664 -2.1,0.664 h -1.624 v -4.893 h 1.681 c 0.878,0 1.552,0.213 2.023,0.641 z m -0.126,1.802 c 0,-1.12 -0.643,-1.68 -1.926,-1.68 h -0.825 v 3.353 h 0.917 c 0.592,0 1.047,-0.142 1.361,-0.424 0.314,-0.282 0.473,-0.698 0.473,-1.249 z"
   id="path85"
   inkscape:connector-curvature="0" />
			<path
   d="m 147.669,148.271 v -4.893 h 0.826 v 4.109 h 2.232 v 0.783 h -3.058 z"
   id="path87"
   inkscape:connector-curvature="0" />
			<path
   d="m 151.708,143.378 h 0.826 v 4.893 h -0.826 v -4.893 z"
   id="path89"
   inkscape:connector-curvature="0" />
			<path
   d="m 157.343,145.892 h 0.826 v 1.672 c -0.462,0.51 -1.122,0.764 -1.98,0.764 -0.724,0 -1.329,-0.238 -1.816,-0.715 -0.488,-0.475 -0.732,-1.077 -0.732,-1.805 0,-0.729 0.249,-1.336 0.746,-1.82 0.497,-0.486 1.098,-0.729 1.803,-0.729 0.704,0 1.29,0.205 1.757,0.616 l -0.44,0.63 c -0.191,-0.163 -0.385,-0.276 -0.578,-0.34 -0.193,-0.062 -0.419,-0.094 -0.676,-0.094 -0.494,0 -0.91,0.16 -1.246,0.479 -0.336,0.32 -0.504,0.74 -0.504,1.261 0,0.521 0.164,0.938 0.49,1.253 0.326,0.315 0.723,0.473 1.187,0.473 0.464,0 0.853,-0.101 1.165,-0.301 v -1.344 z"
   id="path91"
   inkscape:connector-curvature="0" />
			<path
   d="m 159.366,148.271 v -4.893 h 0.826 v 2.121 h 2.429 v -2.121 h 0.826 v 4.893 h -0.826 v -2.002 h -2.429 v 2.002 h -0.826 z"
   id="path93"
   inkscape:connector-curvature="0" />
			<path
   d="m 166.911,144.134 v 4.137 h -0.825 v -4.137 h -1.484 v -0.756 h 3.794 v 0.756 h -1.485 z"
   id="path95"
   inkscape:connector-curvature="0" />
			<path
   d="m 122.69,151.778 v 0.776 h -2.611 v 1.296 h 2.345 v 0.734 h -2.345 v 1.309 h 2.695 v 0.777 h -3.521 v -4.893 h 3.437 z"
   id="path97"
   inkscape:connector-curvature="0" />
			<path
   d="m 126.932,151.778 h 1.036 l -1.555,2.352 1.688,2.541 h -1.05 l -1.211,-1.841 h -0.028 l -1.203,1.841 h -1.029 l 1.68,-2.514 -1.561,-2.379 h 1.021 l 1.092,1.651 h 0.035 l 1.085,-1.651 z"
   id="path99"
   inkscape:connector-curvature="0" />
			<path
   d="m 132.519,152.205 c 0.34,0.284 0.51,0.724 0.51,1.315 0,0.594 -0.174,1.027 -0.521,1.303 -0.347,0.276 -0.881,0.412 -1.6,0.412 h -0.867 v 1.436 h -0.826 v -4.893 h 1.68 c 0.741,0 1.282,0.143 1.624,0.427 z m -0.586,2.02 c 0.166,-0.175 0.249,-0.432 0.249,-0.771 0,-0.338 -0.104,-0.577 -0.315,-0.717 -0.209,-0.141 -0.539,-0.211 -0.986,-0.211 h -0.84 v 1.961 H 131 c 0.456,0 0.768,-0.088 0.933,-0.262 z"
   id="path101"
   inkscape:connector-curvature="0" />
			<path
   d="m 138.09,155.995 c -0.495,0.483 -1.106,0.725 -1.834,0.725 -0.728,0 -1.339,-0.241 -1.834,-0.725 -0.495,-0.482 -0.742,-1.085 -0.742,-1.806 0,-0.722 0.247,-1.323 0.742,-1.806 0.495,-0.483 1.106,-0.725 1.834,-0.725 0.728,0 1.339,0.241 1.834,0.725 0.495,0.482 0.741,1.084 0.741,1.806 0,0.721 -0.246,1.324 -0.741,1.806 z m -0.606,-3.062 c -0.334,-0.346 -0.743,-0.518 -1.229,-0.518 -0.486,0 -0.896,0.172 -1.229,0.518 -0.334,0.346 -0.501,0.765 -0.501,1.257 0,0.492 0.167,0.911 0.501,1.257 0.333,0.346 0.743,0.518 1.229,0.518 0.486,0 0.895,-0.172 1.229,-0.518 0.333,-0.346 0.501,-0.765 0.501,-1.257 0,-0.492 -0.168,-0.912 -0.501,-1.257 z"
   id="path103"
   inkscape:connector-curvature="0" />
			<path
   d="m 140.861,152.593 c -0.145,0.115 -0.217,0.264 -0.217,0.445 0,0.181 0.077,0.325 0.231,0.43 0.153,0.105 0.481,0.219 0.982,0.34 0.502,0.121 0.881,0.292 1.135,0.512 0.254,0.219 0.381,0.542 0.381,0.969 0,0.428 -0.16,0.773 -0.482,1.04 -0.322,0.266 -0.744,0.399 -1.268,0.399 -0.766,0 -1.443,-0.264 -2.037,-0.791 l 0.519,-0.623 c 0.495,0.429 1.008,0.644 1.54,0.644 0.266,0 0.477,-0.058 0.633,-0.172 0.156,-0.114 0.235,-0.266 0.235,-0.454 0,-0.189 -0.073,-0.336 -0.221,-0.441 -0.148,-0.105 -0.4,-0.201 -0.759,-0.287 -0.359,-0.086 -0.633,-0.166 -0.82,-0.238 -0.186,-0.072 -0.352,-0.166 -0.496,-0.283 -0.289,-0.219 -0.434,-0.547 -0.434,-0.98 0,-0.433 0.156,-0.783 0.469,-1.047 0.312,-0.263 0.713,-0.395 1.203,-0.395 0.663,0 1.26,0.184 1.793,0.553 l -0.463,0.658 c -0.4,-0.299 -0.85,-0.448 -1.344,-0.448 -0.241,-0.002 -0.435,0.055 -0.58,0.169 z"
   id="path105"
   inkscape:connector-curvature="0" />
			<path
   d="m 148.562,151.771 v 2.779 c 0,0.705 -0.193,1.247 -0.58,1.627 -0.389,0.381 -0.877,0.571 -1.467,0.571 -0.591,0 -1.086,-0.19 -1.484,-0.571 -0.398,-0.38 -0.599,-0.908 -0.599,-1.585 v -2.821 h 0.833 v 2.709 c 0,0.458 0.111,0.82 0.332,1.089 0.223,0.269 0.524,0.402 0.907,0.402 0.382,0 0.684,-0.13 0.903,-0.388 0.219,-0.26 0.328,-0.615 0.328,-1.068 v -2.744 h 0.827 z"
   id="path107"
   inkscape:connector-curvature="0" />
			<path
   d="m 153.867,153.366 c 0,0.809 -0.353,1.316 -1.057,1.527 l 1.28,1.777 h -1.049 l -1.17,-1.645 h -1.084 v 1.645 h -0.826 v -4.893 h 1.819 c 0.747,0 1.281,0.125 1.603,0.377 0.323,0.253 0.484,0.658 0.484,1.212 z m -1.098,0.694 c 0.168,-0.145 0.252,-0.377 0.252,-0.696 0,-0.319 -0.086,-0.539 -0.26,-0.657 -0.172,-0.119 -0.48,-0.18 -0.924,-0.18 h -1.049 v 1.75 h 1.028 c 0.467,-10e-4 0.785,-0.073 0.953,-0.217 z"
   id="path109"
   inkscape:connector-curvature="0" />
			<path
   d="m 158.747,151.778 v 0.776 h -2.611 v 1.296 h 2.345 v 0.734 h -2.345 v 1.309 h 2.695 v 0.777 h -3.521 v -4.893 h 3.437 z"
   id="path111"
   inkscape:connector-curvature="0" />
		</g>
		<g
   id="g113">
			<path
   d="m 68.361,96.081 1.092,-3.521 h 0.742 l 1.099,3.521 1.226,-3.521 h 0.889 L 71.7,97.446 H 70.881 L 69.853,94.1 h -0.057 l -1.028,3.346 H 67.949 L 66.24,92.56 h 0.889 l 1.232,3.521 z"
   id="path115"
   inkscape:connector-curvature="0" />
			<path
   d="m 77.686,92.56 v 0.777 h -2.611 v 1.295 h 2.345 v 0.735 h -2.345 v 1.31 h 2.695 v 0.776 H 74.249 V 92.56 h 3.437 z"
   id="path117"
   inkscape:connector-curvature="0" />
			<path
   d="m 79.029,92.56 h 0.826 v 4.894 H 79.029 V 92.56 z"
   id="path119"
   inkscape:connector-curvature="0" />
			<path
   d="m 84.664,95.073 h 0.826 v 1.673 c -0.462,0.509 -1.122,0.763 -1.981,0.763 -0.723,0 -1.328,-0.238 -1.816,-0.714 -0.487,-0.476 -0.731,-1.077 -0.731,-1.806 0,-0.729 0.249,-1.335 0.746,-1.82 0.497,-0.485 1.098,-0.729 1.802,-0.729 0.705,0 1.291,0.206 1.758,0.617 l -0.441,0.629 c -0.191,-0.162 -0.384,-0.275 -0.577,-0.339 -0.194,-0.063 -0.419,-0.095 -0.676,-0.095 -0.495,0 -0.91,0.16 -1.246,0.479 -0.336,0.319 -0.504,0.739 -0.504,1.261 0,0.52 0.163,0.938 0.49,1.252 0.326,0.315 0.722,0.473 1.187,0.473 0.464,0 0.853,-0.1 1.165,-0.301 v -1.343 z"
   id="path121"
   inkscape:connector-curvature="0" />
			<path
   d="M 86.688,97.453 V 92.56 h 0.826 v 2.121 h 2.429 V 92.56 h 0.826 v 4.894 h -0.826 v -2.002 h -2.429 v 2.002 h -0.826 z"
   id="path123"
   inkscape:connector-curvature="0" />
			<path
   d="m 94.232,93.315 v 4.138 H 93.407 V 93.315 H 91.923 V 92.56 h 3.794 v 0.756 h -1.485 z"
   id="path125"
   inkscape:connector-curvature="0" />
			<path
   d="m 101.583,95.073 h 0.826 v 1.673 c -0.463,0.509 -1.123,0.763 -1.981,0.763 -0.724,0 -1.329,-0.238 -1.816,-0.714 -0.488,-0.476 -0.731,-1.077 -0.731,-1.806 0,-0.729 0.248,-1.335 0.745,-1.82 0.497,-0.485 1.098,-0.729 1.803,-0.729 0.704,0 1.29,0.206 1.757,0.617 l -0.44,0.629 c -0.191,-0.162 -0.385,-0.275 -0.578,-0.339 -0.193,-0.064 -0.419,-0.095 -0.676,-0.095 -0.494,0 -0.909,0.16 -1.245,0.479 -0.336,0.319 -0.505,0.739 -0.505,1.261 0,0.52 0.164,0.938 0.49,1.252 0.327,0.315 0.723,0.473 1.187,0.473 0.465,0 0.853,-0.1 1.166,-0.301 v -1.343 z"
   id="path127"
   inkscape:connector-curvature="0" />
			<path
   d="m 105.93,92.56 2.156,4.894 h -0.91 l -0.497,-1.112 h -2.345 l -0.477,1.112 h -0.882 l 2.156,-4.894 h 0.799 z m 0.42,3.017 -0.84,-1.883 -0.833,1.883 h 1.673 z"
   id="path129"
   inkscape:connector-curvature="0" />
			<path
   d="m 108.996,92.56 h 0.826 v 4.894 h -0.826 V 92.56 z"
   id="path131"
   inkscape:connector-curvature="0" />
			<path
   d="M 115.03,96.214 V 92.56 h 0.826 v 4.894 h -0.896 l -2.771,-3.569 v 3.569 h -0.826 V 92.56 h 0.826 l 2.841,3.654 z"
   id="path133"
   inkscape:connector-curvature="0" />
		</g>
		<g
   id="g135">
			<path
   d="m 62.539,120.709 c 0.472,0.427 0.707,1.021 0.707,1.781 0,0.76 -0.229,1.362 -0.686,1.806 -0.458,0.443 -1.158,0.666 -2.101,0.666 h -1.624 v -4.894 h 1.681 c 0.878,0 1.551,0.214 2.023,0.641 z m -0.126,1.802 c 0,-1.119 -0.642,-1.68 -1.925,-1.68 h -0.826 v 3.354 h 0.917 c 0.593,0 1.047,-0.141 1.361,-0.424 0.316,-0.282 0.473,-0.699 0.473,-1.25 z"
   id="path137"
   inkscape:connector-curvature="0" />
			<path
   d="m 67.803,120.068 v 0.776 h -2.61 v 1.296 h 2.345 v 0.735 h -2.345 v 1.309 h 2.694 v 0.777 h -3.521 v -4.894 h 3.437 z"
   id="path139"
   inkscape:connector-curvature="0" />
			<path
   d="m 70.071,120.884 c -0.145,0.115 -0.217,0.263 -0.217,0.445 0,0.182 0.077,0.324 0.23,0.43 0.154,0.105 0.482,0.219 0.983,0.34 0.502,0.121 0.88,0.291 1.135,0.511 0.254,0.22 0.381,0.542 0.381,0.97 0,0.427 -0.161,0.773 -0.482,1.039 -0.322,0.266 -0.745,0.399 -1.268,0.399 -0.766,0 -1.444,-0.264 -2.037,-0.791 l 0.519,-0.623 c 0.494,0.429 1.008,0.644 1.54,0.644 0.266,0 0.477,-0.057 0.633,-0.172 0.156,-0.113 0.235,-0.266 0.235,-0.454 0,-0.188 -0.074,-0.336 -0.221,-0.441 -0.147,-0.104 -0.4,-0.2 -0.76,-0.286 -0.359,-0.087 -0.633,-0.166 -0.819,-0.238 -0.186,-0.072 -0.352,-0.167 -0.497,-0.283 -0.289,-0.22 -0.434,-0.547 -0.434,-0.98 0,-0.433 0.156,-0.783 0.469,-1.047 0.313,-0.264 0.714,-0.396 1.204,-0.396 0.663,0 1.26,0.185 1.792,0.554 l -0.462,0.658 c -0.401,-0.299 -0.85,-0.449 -1.344,-0.449 -0.242,-0.002 -0.435,0.056 -0.58,0.17 z"
   id="path141"
   inkscape:connector-curvature="0" />
			<path
   d="m 77.085,120.495 c 0.341,0.285 0.511,0.724 0.511,1.316 0,0.592 -0.174,1.026 -0.521,1.302 -0.347,0.276 -0.881,0.413 -1.6,0.413 h -0.867 v 1.436 h -0.826 v -4.894 h 1.68 c 0.741,0 1.282,0.143 1.623,0.427 z m -0.585,2.02 c 0.166,-0.175 0.249,-0.432 0.249,-0.77 0,-0.338 -0.105,-0.578 -0.315,-0.718 -0.21,-0.14 -0.539,-0.21 -0.986,-0.21 h -0.84 v 1.96 h 0.959 c 0.456,0 0.768,-0.087 0.933,-0.262 z"
   id="path143"
   inkscape:connector-curvature="0" />
			<path
   d="m 82.657,124.286 c -0.495,0.482 -1.106,0.725 -1.834,0.725 -0.729,0 -1.34,-0.242 -1.834,-0.725 -0.495,-0.483 -0.742,-1.086 -0.742,-1.807 0,-0.721 0.247,-1.322 0.742,-1.806 0.494,-0.483 1.105,-0.725 1.834,-0.725 0.728,0 1.339,0.241 1.834,0.725 0.494,0.483 0.741,1.085 0.741,1.806 0,0.721 -0.247,1.324 -0.741,1.807 z m -0.605,-3.062 c -0.334,-0.346 -0.743,-0.518 -1.229,-0.518 -0.486,0 -0.896,0.172 -1.229,0.518 -0.334,0.346 -0.501,0.764 -0.501,1.256 0,0.492 0.167,0.912 0.501,1.257 0.333,0.346 0.743,0.519 1.229,0.519 0.486,0 0.895,-0.173 1.229,-0.519 0.333,-0.345 0.5,-0.765 0.5,-1.257 0,-0.492 -0.167,-0.911 -0.5,-1.256 z"
   id="path145"
   inkscape:connector-curvature="0" />
			<path
   d="m 88.173,123.723 v -3.654 h 0.826 v 4.894 h -0.896 l -2.772,-3.57 v 3.57 h -0.826 v -4.894 h 0.826 l 2.842,3.654 z"
   id="path147"
   inkscape:connector-curvature="0" />
			<path
   d="m 94.242,120.709 c 0.471,0.427 0.707,1.021 0.707,1.781 0,0.76 -0.229,1.362 -0.687,1.806 -0.458,0.444 -1.157,0.666 -2.1,0.666 h -1.624 v -4.894 h 1.68 c 0.878,0 1.553,0.214 2.024,0.641 z m -0.126,1.802 c 0,-1.119 -0.643,-1.68 -1.926,-1.68 h -0.825 v 3.354 h 0.917 c 0.592,0 1.046,-0.141 1.361,-0.424 0.315,-0.282 0.473,-0.699 0.473,-1.25 z"
   id="path149"
   inkscape:connector-curvature="0" />
			<path
   d="m 99.506,120.068 v 0.776 h -2.61 v 1.296 h 2.345 v 0.735 h -2.345 v 1.309 h 2.694 v 0.777 h -3.521 v -4.894 h 3.437 z"
   id="path151"
   inkscape:connector-curvature="0" />
			<path
   d="m 104.518,123.723 v -3.654 h 0.826 v 4.894 h -0.896 l -2.772,-3.57 v 3.57 h -0.826 v -4.894 h 0.826 l 2.842,3.654 z"
   id="path153"
   inkscape:connector-curvature="0" />
			<path
   d="m 108.998,124.212 c 0.284,0 0.529,-0.047 0.735,-0.143 0.205,-0.096 0.42,-0.249 0.644,-0.459 l 0.532,0.546 c -0.519,0.574 -1.147,0.861 -1.887,0.861 -0.74,0 -1.354,-0.238 -1.841,-0.714 -0.488,-0.477 -0.731,-1.078 -0.731,-1.807 0,-0.728 0.248,-1.334 0.745,-1.82 0.497,-0.484 1.125,-0.728 1.883,-0.728 0.759,0 1.393,0.28 1.901,0.841 l -0.525,0.573 c -0.233,-0.224 -0.454,-0.38 -0.661,-0.469 -0.208,-0.089 -0.452,-0.134 -0.732,-0.134 -0.494,0 -0.909,0.16 -1.245,0.48 -0.336,0.319 -0.505,0.728 -0.505,1.225 0,0.497 0.167,0.912 0.501,1.246 0.334,0.334 0.729,0.502 1.186,0.502 z"
   id="path155"
   inkscape:connector-curvature="0" />
			<path
   d="m 113.604,122.294 1.337,-2.226 h 0.903 l -1.834,2.961 v 1.933 h -0.826 v -1.933 l -1.82,-2.961 h 0.903 l 1.337,2.226 z"
   id="path157"
   inkscape:connector-curvature="0" />
		</g>
		<g
   id="g159">
			<path
   d="m 166.627,117.449 c 0,0.808 -0.353,1.316 -1.057,1.526 l 1.28,1.777 h -1.049 l -1.17,-1.645 h -1.084 v 1.645 h -0.826 v -4.893 h 1.819 c 0.747,0 1.281,0.126 1.603,0.378 0.323,0.253 0.484,0.657 0.484,1.212 z m -1.099,0.694 c 0.168,-0.145 0.252,-0.377 0.252,-0.696 0,-0.32 -0.086,-0.539 -0.26,-0.658 -0.172,-0.119 -0.48,-0.179 -0.924,-0.179 h -1.049 v 1.75 h 1.028 c 0.468,-0.001 0.785,-0.073 0.953,-0.217 z"
   id="path161"
   inkscape:connector-curvature="0" />
			<path
   d="m 171.507,115.86 v 0.777 h -2.611 v 1.295 h 2.345 v 0.734 h -2.345 v 1.31 h 2.695 v 0.776 h -3.521 v -4.893 h 3.437 z"
   id="path163"
   inkscape:connector-curvature="0" />
			<path
   d="m 176.554,116.501 c 0.471,0.427 0.707,1.021 0.707,1.781 0,0.761 -0.229,1.363 -0.687,1.807 -0.458,0.443 -1.157,0.664 -2.101,0.664 h -1.623 v -4.893 h 1.68 c 0.877,0 1.551,0.213 2.024,0.641 z m -0.127,1.803 c 0,-1.12 -0.642,-1.68 -1.925,-1.68 h -0.825 v 3.353 h 0.916 c 0.593,0 1.047,-0.142 1.361,-0.424 0.316,-0.282 0.473,-0.699 0.473,-1.249 z"
   id="path165"
   inkscape:connector-curvature="0" />
			<path
   d="m 182.37,115.854 v 2.778 c 0,0.705 -0.193,1.248 -0.581,1.628 -0.388,0.38 -0.876,0.571 -1.467,0.571 -0.591,0 -1.085,-0.191 -1.483,-0.571 -0.399,-0.38 -0.6,-0.909 -0.6,-1.585 v -2.821 h 0.834 v 2.709 c 0,0.458 0.11,0.82 0.332,1.089 0.222,0.268 0.523,0.402 0.906,0.402 0.383,0 0.684,-0.13 0.903,-0.389 0.22,-0.26 0.329,-0.615 0.329,-1.067 v -2.744 h 0.827 z"
   id="path167"
   inkscape:connector-curvature="0" />
			<path
   d="m 185.884,120.005 c 0.285,0 0.529,-0.049 0.735,-0.145 0.205,-0.096 0.42,-0.248 0.644,-0.458 l 0.532,0.546 c -0.519,0.574 -1.147,0.861 -1.886,0.861 -0.74,0 -1.354,-0.238 -1.842,-0.715 -0.488,-0.475 -0.731,-1.077 -0.731,-1.805 0,-0.729 0.249,-1.336 0.745,-1.82 0.498,-0.486 1.125,-0.729 1.883,-0.729 0.759,0 1.393,0.28 1.901,0.84 l -0.525,0.574 c -0.233,-0.224 -0.454,-0.381 -0.661,-0.469 -0.208,-0.089 -0.451,-0.133 -0.732,-0.133 -0.494,0 -0.909,0.16 -1.245,0.479 -0.336,0.32 -0.505,0.729 -0.505,1.226 0,0.497 0.168,0.913 0.501,1.246 0.333,0.334 0.729,0.502 1.186,0.502 z"
   id="path169"
   inkscape:connector-curvature="0" />
			<path
   d="m 192.282,115.86 v 0.777 h -2.611 v 1.295 h 2.345 v 0.734 h -2.345 v 1.31 h 2.695 v 0.776 h -3.521 v -4.893 h 3.437 z"
   id="path171"
   inkscape:connector-curvature="0" />
			<path
   d="m 197.329,116.501 c 0.471,0.427 0.707,1.021 0.707,1.781 0,0.761 -0.229,1.363 -0.686,1.807 -0.458,0.443 -1.158,0.664 -2.101,0.664 h -1.624 v -4.893 h 1.68 c 0.878,0 1.552,0.213 2.024,0.641 z m -0.126,1.803 c 0,-1.12 -0.642,-1.68 -1.925,-1.68 h -0.826 v 3.353 h 0.917 c 0.593,0 1.046,-0.142 1.361,-0.424 0.315,-0.282 0.473,-0.699 0.473,-1.249 z"
   id="path173"
   inkscape:connector-curvature="0" />
			<path
   d="m 165.903,124.261 v 0.776 h -2.611 v 1.296 h 2.345 v 0.734 h -2.345 v 1.309 h 2.695 v 0.777 h -3.521 v -4.893 h 3.437 z"
   id="path175"
   inkscape:connector-curvature="0" />
			<path
   d="m 170.145,124.261 h 1.036 l -1.555,2.352 1.688,2.541 h -1.05 l -1.211,-1.841 h -0.028 l -1.203,1.841 h -1.029 l 1.68,-2.514 -1.561,-2.379 h 1.021 l 1.092,1.651 h 0.035 l 1.085,-1.651 z"
   id="path177"
   inkscape:connector-curvature="0" />
			<path
   d="m 175.864,124.261 v 0.776 h -2.611 v 1.296 h 2.345 v 0.734 h -2.345 v 1.309 h 2.695 v 0.777 h -3.521 v -4.893 h 3.437 z"
   id="path179"
   inkscape:connector-curvature="0" />
			<path
   d="m 181.113,125.849 c 0,0.809 -0.353,1.316 -1.057,1.527 l 1.28,1.777 h -1.049 l -1.17,-1.645 h -1.084 v 1.645 h -0.826 v -4.893 h 1.819 c 0.747,0 1.281,0.125 1.603,0.377 0.323,0.253 0.484,0.657 0.484,1.212 z m -1.098,0.693 c 0.168,-0.145 0.252,-0.377 0.252,-0.696 0,-0.319 -0.086,-0.539 -0.26,-0.657 -0.172,-0.119 -0.48,-0.18 -0.924,-0.18 h -1.049 v 1.75 h 1.028 c 0.467,0 0.785,-0.072 0.953,-0.217 z"
   id="path181"
   inkscape:connector-curvature="0" />
			<path
   d="m 184.669,128.404 c 0.285,0 0.53,-0.048 0.736,-0.144 0.205,-0.096 0.42,-0.248 0.644,-0.459 l 0.532,0.547 c -0.519,0.574 -1.147,0.861 -1.887,0.861 -0.74,0 -1.354,-0.238 -1.842,-0.715 -0.487,-0.476 -0.73,-1.078 -0.73,-1.806 0,-0.728 0.248,-1.335 0.745,-1.82 0.497,-0.485 1.124,-0.728 1.883,-0.728 0.759,0 1.392,0.279 1.901,0.84 l -0.525,0.574 c -0.234,-0.225 -0.454,-0.381 -0.662,-0.469 -0.207,-0.09 -0.451,-0.134 -0.731,-0.134 -0.495,0 -0.909,0.16 -1.245,0.479 -0.336,0.32 -0.505,0.729 -0.505,1.225 0,0.498 0.167,0.913 0.501,1.246 0.333,0.336 0.728,0.503 1.185,0.503 z"
   id="path183"
   inkscape:connector-curvature="0" />
			<path
   d="m 187.63,124.261 h 0.826 v 4.893 h -0.826 v -4.893 z"
   id="path185"
   inkscape:connector-curvature="0" />
			<path
   d="m 190.921,125.075 c -0.145,0.115 -0.217,0.264 -0.217,0.445 0,0.181 0.076,0.325 0.23,0.43 0.154,0.105 0.482,0.219 0.983,0.34 0.501,0.121 0.88,0.292 1.134,0.512 0.254,0.219 0.382,0.542 0.382,0.969 0,0.428 -0.161,0.773 -0.483,1.04 -0.322,0.266 -0.744,0.399 -1.267,0.399 -0.766,0 -1.444,-0.264 -2.037,-0.791 l 0.519,-0.623 c 0.494,0.429 1.008,0.644 1.539,0.644 0.267,0 0.478,-0.058 0.634,-0.172 0.156,-0.114 0.235,-0.266 0.235,-0.454 0,-0.189 -0.074,-0.336 -0.221,-0.441 -0.147,-0.105 -0.4,-0.201 -0.76,-0.287 -0.36,-0.086 -0.633,-0.166 -0.819,-0.238 -0.186,-0.072 -0.353,-0.166 -0.497,-0.283 -0.289,-0.219 -0.434,-0.547 -0.434,-0.98 0,-0.433 0.156,-0.783 0.469,-1.047 0.312,-0.263 0.714,-0.395 1.204,-0.395 0.663,0 1.26,0.184 1.792,0.553 l -0.462,0.658 c -0.401,-0.299 -0.85,-0.448 -1.345,-0.448 -0.241,-0.002 -0.435,0.056 -0.579,0.169 z"
   id="path187"
   inkscape:connector-curvature="0" />
			<path
   d="m 198.067,124.261 v 0.776 h -2.611 v 1.296 h 2.346 v 0.734 h -2.346 v 1.309 h 2.695 v 0.777 h -3.521 v -4.893 h 3.437 z"
   id="path189"
   inkscape:connector-curvature="0" />
		</g>
	</g>
</g>
</svg>