<?xml version="1.0" encoding="UTF-8" standalone="no"?>
<!-- Generator: Adobe Illustrator 15.0.0, SVG Export Plug-In . SVG Version: 6.00 Build 0)  -->

<svg
   xmlns:dc="http://purl.org/dc/elements/1.1/"
   xmlns:cc="http://creativecommons.org/ns#"
   xmlns:rdf="http://www.w3.org/1999/02/22-rdf-syntax-ns#"
   xmlns:svg="http://www.w3.org/2000/svg"
   xmlns="http://www.w3.org/2000/svg"
   xmlns:sodipodi="http://sodipodi.sourceforge.net/DTD/sodipodi-0.dtd"
   xmlns:inkscape="http://www.inkscape.org/namespaces/inkscape"
   version="1.1"
   id="Layer_1"
   x="0px"
   y="0px"
   width="85.038994"
   height="85.042"
   viewBox="0 0 85.038997 85.042003"
   enable-background="new 0 0 141.732 141.732"
   xml:space="preserve"
   inkscape:version="0.48.3.1 r9886"
   sodipodi:docname="logo_rgb.svg"><metadata
   id="metadata58"><rdf:RDF><cc:Work
       rdf:about=""><dc:format>image/svg+xml</dc:format><dc:type
         rdf:resource="http://purl.org/dc/dcmitype/StillImage" /></cc:Work></rdf:RDF></metadata><defs
   id="defs56" /><sodipodi:namedview
   pagecolor="#ffffff"
   bordercolor="#666666"
   borderopacity="1"
   objecttolerance="10"
   gridtolerance="10"
   guidetolerance="10"
   inkscape:pageopacity="0"
   inkscape:pageshadow="2"
   inkscape:window-width="638"
   inkscape:window-height="784"
   id="namedview54"
   showgrid="false"
   fit-margin-top="0"
   fit-margin-left="0"
   fit-margin-right="0"
   fit-margin-bottom="0"
   inkscape:zoom="1.6651145"
   inkscape:cx="42.141998"
   inkscape:cy="42.335998"
   inkscape:window-x="0"
   inkscape:window-y="14"
   inkscape:window-maximized="0"
   inkscape:current-layer="Layer_1" />
<g
   id="logo"
   transform="translate(-28.724,-28.16)">
	<g
   id="g4">
		<path
   d="m 60.082,72.943 v -4.496 h 0.759 v 1.949 h 2.232 v -1.949 h 0.759 v 4.496 h -0.759 v -1.84 h -2.232 v 1.84 h -0.759 z"
   id="path6"
   inkscape:connector-curvature="0" />
		<path
   d="m 68.547,68.447 v 0.714 h -2.399 v 1.19 h 2.155 v 0.676 h -2.155 v 1.203 h 2.477 v 0.714 H 65.39 v -4.496 h 3.157 z"
   id="path8"
   inkscape:connector-curvature="0" />
		<path
   d="m 70.033,72.943 v -4.496 h 0.759 v 3.776 h 2.052 v 0.72 h -2.811 z"
   id="path10"
   inkscape:connector-curvature="0" />
		<path
   d="m 74.144,68.447 h 0.758 v 4.496 h -0.758 v -4.496 z"
   id="path12"
   inkscape:connector-curvature="0" />
		<path
   d="m 80.286,72.323 c -0.454,0.442 -1.017,0.666 -1.685,0.666 -0.669,0 -1.231,-0.224 -1.687,-0.666 -0.453,-0.443 -0.682,-0.997 -0.682,-1.66 0,-0.663 0.229,-1.215 0.682,-1.659 0.455,-0.444 1.018,-0.666 1.687,-0.666 0.668,0 1.23,0.222 1.685,0.666 0.455,0.444 0.683,0.997 0.683,1.659 -10e-4,0.663 -0.228,1.216 -0.683,1.66 z m -0.557,-2.815 c -0.307,-0.317 -0.683,-0.476 -1.128,-0.476 -0.446,0 -0.823,0.159 -1.129,0.476 -0.308,0.318 -0.46,0.703 -0.46,1.155 0,0.453 0.152,0.837 0.46,1.154 0.306,0.318 0.683,0.477 1.129,0.477 0.445,0 0.821,-0.158 1.128,-0.477 0.308,-0.317 0.46,-0.702 0.46,-1.154 0,-0.453 -0.152,-0.837 -0.46,-1.155 z"
   id="path14"
   inkscape:connector-curvature="0" />
		<path
   d="m 83.978,69.142 v 3.801 h -0.76 v -3.801 h -1.362 v -0.695 h 3.486 v 0.695 h -1.364 z"
   id="path16"
   inkscape:connector-curvature="0" />
		<path
   d="m 90.314,69.907 c 0,0.742 -0.323,1.209 -0.971,1.402 l 1.176,1.634 H 89.554 L 88.48,71.432 h -0.996 v 1.511 h -0.76 v -4.496 h 1.672 c 0.688,0 1.179,0.116 1.474,0.348 0.296,0.231 0.444,0.602 0.444,1.112 z m -1.011,0.637 c 0.154,-0.133 0.233,-0.346 0.233,-0.64 0,-0.294 -0.08,-0.496 -0.238,-0.605 -0.158,-0.109 -0.442,-0.164 -0.85,-0.164 h -0.965 v 1.608 h 0.945 c 0.43,0 0.721,-0.066 0.875,-0.199 z"
   id="path18"
   inkscape:connector-curvature="0" />
		<path
   d="m 95.576,72.323 c -0.454,0.442 -1.016,0.666 -1.686,0.666 -0.668,0 -1.23,-0.224 -1.686,-0.666 -0.454,-0.443 -0.681,-0.997 -0.681,-1.66 0,-0.663 0.227,-1.215 0.681,-1.659 0.455,-0.444 1.018,-0.666 1.686,-0.666 0.67,0 1.231,0.222 1.686,0.666 0.455,0.444 0.682,0.997 0.682,1.659 -10e-4,0.663 -0.228,1.216 -0.682,1.66 z m -0.558,-2.815 c -0.306,-0.317 -0.683,-0.476 -1.128,-0.476 -0.446,0 -0.822,0.159 -1.129,0.476 -0.307,0.318 -0.46,0.703 -0.46,1.155 0,0.453 0.153,0.837 0.46,1.154 0.307,0.318 0.683,0.477 1.129,0.477 0.445,0 0.822,-0.158 1.128,-0.477 0.308,-0.317 0.46,-0.702 0.46,-1.154 0,-0.453 -0.152,-0.837 -0.46,-1.155 z"
   id="path20"
   inkscape:connector-curvature="0" />
		<path
   d="m 100.605,68.839 c 0.314,0.261 0.47,0.665 0.47,1.209 0,0.545 -0.16,0.943 -0.479,1.197 -0.319,0.253 -0.809,0.379 -1.47,0.379 h -0.797 v 1.318 H 97.57 v -4.496 h 1.543 c 0.681,0.001 1.179,0.132 1.492,0.393 z m -0.536,1.856 c 0.152,-0.161 0.228,-0.397 0.228,-0.708 0,-0.311 -0.096,-0.53 -0.289,-0.659 C 99.815,69.2 99.513,69.135 99.102,69.135 H 98.33 v 1.801 h 0.881 c 0.419,0 0.705,-0.08 0.858,-0.241 z"
   id="path22"
   inkscape:connector-curvature="0" />
		<path
   d="m 105.552,68.447 v 0.714 h -2.399 v 1.19 h 2.154 v 0.676 h -2.154 v 1.203 h 2.477 v 0.714 h -3.236 v -4.496 h 3.158 z"
   id="path24"
   inkscape:connector-curvature="0" />
	</g>
	<g
   id="g26">
		<polygon
   points="55.752,69.199 55.752,72.159 28.724,73.637 28.724,67.72 "
   id="polygon28"
   style="fill:#f7e932" />
	</g>
	<polygon
   points="57.631,61.224 35.751,47.113 33.089,51.724 56.25,63.618 "
   id="polygon30"
   style="fill:#edca40" />
	<polygon
   points="56.25,77.743 33.094,89.642 35.757,94.251 57.633,80.136 "
   id="polygon32"
   style="fill:#edca40" />
	<polygon
   points="62.706,53.179 52.034,32.673 47.935,35.04 60.359,54.536 "
   id="polygon34"
   style="fill:#e4a948" />
	<polygon
   points="60.357,86.823 47.938,106.321 52.036,108.686 62.706,88.178 "
   id="polygon36"
   style="fill:#e4a948" />
	<polygon
   points="73.315,28.16 69.174,28.16 69.862,46.152 72.625,46.152 "
   id="polygon38"
   style="fill:#b58267" />
	<polygon
   points="69.22,113.202 73.362,113.196 72.652,95.206 69.888,95.208 "
   id="polygon40"
   style="fill:#b58267" />
	<polygon
   points="94.042,34.745 90.967,32.969 85.528,43.147 87.948,44.543 "
   id="polygon42"
   style="fill:#886076" />
	<polygon
   points="90.972,108.386 94.045,106.611 87.949,96.814 85.531,98.211 "
   id="polygon44"
   style="fill:#886076" />
	<polygon
   points="108.807,50.701 107.328,48.14 102.222,51.276 103.537,53.554 "
   id="polygon46"
   style="fill:#5c427d" />
	<polygon
   points="107.326,93.22 108.806,90.659 103.539,87.805 102.222,90.083 "
   id="polygon48"
   style="fill:#5c427d" />
	<polygon
   points="113.763,71.864 113.763,69.497 109.959,69.58 109.959,71.78 "
   id="polygon50"
   style="fill:#342b80" />
	<line
   x1="102.178"
   y1="90.162003"
   x2="103.586"
   y2="87.723999"
   id="line52" />
</g>
</svg>