<?xml version="1.0" encoding="UTF-8" standalone="no"?>
<!-- Created with Inkscape (http://www.inkscape.org/) -->

<svg
   xmlns:dc="http://purl.org/dc/elements/1.1/"
   xmlns:cc="http://creativecommons.org/ns#"
   xmlns:rdf="http://www.w3.org/1999/02/22-rdf-syntax-ns#"
   xmlns:svg="http://www.w3.org/2000/svg"
   xmlns="http://www.w3.org/2000/svg"
   xmlns:sodipodi="http://sodipodi.sourceforge.net/DTD/sodipodi-0.dtd"
   xmlns:inkscape="http://www.inkscape.org/namespaces/inkscape"
   id="heliotrope"
   version="1.1"
   inkscape:version="0.48.3.1 r9886"
   width="591"
   height="590"
   sodipodi:docname="logo_mono.svg">
  <metadata
     id="metadata8">
    <rdf:RDF>
      <cc:Work
         rdf:about="">
        <dc:format>image/svg+xml</dc:format>
        <dc:type
           rdf:resource="http://purl.org/dc/dcmitype/StillImage" />
        <dc:title />
      </cc:Work>
    </rdf:RDF>
  </metadata>
  <defs
     id="defs6" />
  <sodipodi:namedview
     pagecolor="#ffffff"
     bordercolor="#666666"
     borderopacity="1"
     objecttolerance="10"
     gridtolerance="10"
     guidetolerance="10"
     inkscape:pageopacity="0"
     inkscape:pageshadow="2"
     inkscape:window-width="1280"
     inkscape:window-height="786"
     id="namedview4"
     showgrid="false"
     inkscape:zoom="0.76129032"
     inkscape:cx="442.99959"
     inkscape:cy="283.03032"
     inkscape:window-x="0"
     inkscape:window-y="14"
     inkscape:window-maximized="0"
     inkscape:current-layer="heliotrope"
     fit-margin-top="0"
     fit-margin-left="0"
     fit-margin-right="0"
     fit-margin-bottom="0" />
  <g
     id="rays"
     transform="translate(-14,-15)">
    <path
       id="ray0"
       style="fill:#000000"
       d="m 299.58591,129.75 c -0.3336,-5.6375 -1.26769,-28.7 -2.07576,-51.25 -0.80806,-22.55 -1.7478,-46.0625 -2.08832,-52.25 L 294.8027,15 l 14.68638,0 14.68638,0 -0.58217,11.75 c -0.63876,12.892238 -1.07811,23.980616 -2.58536,65.25 -0.5524,15.125 -1.27347,32.1125 -1.60238,37.75 l -0.59801,10.25 -9.30754,0 -9.30754,0 -0.60655,-10.25 z"
       inkscape:connector-curvature="0" />
    <path
       id="ray1"
       style="fill:#000000"
       d="m 417.27435,124.12198 c -4.52411,-2.54209 -8.23661,-4.87433 -8.25,-5.18276 -0.0231,-0.53087 7.73703,-15.19218 28.15251,-53.18922 4.9498,-9.2125 9.38456,-16.75 9.85503,-16.75 0.61843,0 17.78082,9.549552 20.7562,11.549229 0.25849,0.173727 -29.657,48.584451 -38.66694,62.572751 l -3.62115,5.62198 -8.22565,-4.62198 z"
       inkscape:connector-curvature="0" />
    <path
       id="ray2"
       style="fill:#000000"
       d="m 529.5,183.88246 c -2.2,-3.88918 -4.13075,-7.42103 -4.29056,-7.84854 -0.25672,-0.68675 30.62156,-20.26436 34.01567,-21.56681 0.85576,-0.32838 3.01497,2.37202 6.05262,7.56966 2.59725,4.44408 4.72227,8.46501 4.72227,8.93539 0,0.47038 -4.3875,3.2093 -9.75,6.08649 -5.3625,2.8772 -12.675,6.80216 -16.25,8.72215 -3.575,1.91999 -6.9275,3.87976 -7.45,4.35504 -1.91949,1.74604 -3.13469,0.66814 -7.05,-6.25338 z"
       inkscape:connector-curvature="0" />
    <path
       id="ray3"
       style="fill:#000000"
       d="m 579,310 0,-8 13,0 13,0 0,8 0,8 -13,0 -13,0 0,-8 z"
       inkscape:connector-curvature="0" />
    <path
       id="ray4"
       style="fill:#000000"
       d="m 542.94523,455.9055 c -9.04488,-5.55197 -16.82888,-10.45812 -17.29778,-10.90255 -0.63134,-0.59839 4.68816,-11.16557 7.98467,-15.86154 C 534.05501,428.539 570,448.15496 570,448.98815 570,450.12484 560.62971,466 559.95878,466 c -0.31258,0 -7.96868,-4.54252 -17.01355,-10.0945 z"
       inkscape:connector-curvature="0" />
    <path
       id="ray5"
       style="fill:#000000"
       d="m 444.39707,567.75 c -0.90986,-1.7875 -3.58798,-6.85 -5.95139,-11.25 -22.98167,-42.78545 -29.44258,-54.95869 -29.42411,-55.43908 0.0398,-1.0338 15.35562,-9.13016 16.46569,-8.70418 1.10523,0.42412 42.86389,66.67267 42.31044,67.12393 C 466.3551,560.6569 447.633,571 446.9465,571 c -0.49233,0 -1.63957,-1.4625 -2.54943,-3.25 z"
       inkscape:connector-curvature="0" />
    <path
       id="ray6"
       style="fill:#000000"
       d="M 295.75084,597.75 C 296.36289,582.43349 300,482.93088 300,481.50332 300,480.27186 301.70498,480 309.42804,480 l 9.42805,0 0.53899,5.25 c 0.47312,4.60832 4.6894,111.64663 4.62838,117.5 -0.0232,2.22712 -0.16858,2.25 -14.29289,2.25 l -14.26944,0 0.28971,-7.25 z"
       inkscape:connector-curvature="0" />
    <path
       id="ray7"
       style="fill:#000000"
       d="m 161.5,565.45896 c -7.31195,-4.20765 -12.94741,-8.08328 -12.8798,-8.85773 0.0661,-0.7573 11.27286,-18.86488 24.9039,-40.23907 C 187.15514,494.98797 206.18972,465.125 215.82316,450 c 9.63344,-15.125 17.62429,-27.64761 17.75744,-27.82801 0.30186,-0.409 16.4194,8.84476 16.4194,9.42707 0,0.23321 -2.42424,5.03133 -5.38719,10.66248 -7.94521,15.10004 -27.01243,51.66993 -37.66448,72.23846 -5.12703,9.9 -12.40048,23.85 -16.16322,31 -3.76275,7.15 -8.5162,16.26057 -10.56324,20.24571 -2.04703,3.98514 -4.17187,7.23409 -4.72187,7.21989 -0.55,-0.0142 -6.85,-3.39219 -14,-7.50664 z"
       inkscape:connector-curvature="0" />
    <path
       id="ray8"
       style="fill:#000000"
       d="m 54,458.29559 c -4.675,-8.07844 -8.5,-15.29734 -8.5,-16.04201 0,-0.75017 8.918855,-5.94677 20,-11.65306 77.99045,-40.16157 139.75072,-71.67328 139.95912,-71.41081 0.89952,1.13291 8.48283,14.67672 8.73223,15.5958 0.16976,0.62558 -10.71635,8.2472 -24.19135,16.93694 -13.475,8.68973 -28.68318,18.49458 -33.79596,21.78853 -5.11277,3.29396 -17.26277,11.12357 -27,17.39912 C 77.157892,464.4534 63.744224,472.99925 63.152042,472.99183 62.793419,472.98733 58.675,466.37402 54,458.29559 z"
       inkscape:connector-curvature="0" />
    <path
       id="ray9"
       style="fill:#000000"
       d="m 14,310 0,-20 4.75,-0.0177 c 6.586851,-0.0246 173.75977,8.94638 179,9.6056 l 4.25,0.53465 0,9.87745 0,9.87745 -4.25,0.53741 c -4.98545,0.63041 -173.243358,9.63361 -179.5,9.60474 L 14,330 14,310 z"
       inkscape:connector-curvature="0" />
    <path
       id="ray10"
       style="fill:#000000"
       d="m 194,255.40637 c -9.8071,-5.1515 -24.91609,-12.9144 -89,-45.72761 C 51.172424,182.11714 45.5,179.07738 45.5,177.79364 45.5,176.0702 62.201433,147 63.191587,147 c 0.416378,0 5.831107,3.2981 12.032732,7.32911 14.887355,9.67667 49.259181,31.83838 69.470021,44.79174 57.57059,36.89768 70.34309,45.23952 70.08992,45.77637 -1.37306,2.91162 -9.39617,16.07517 -9.78426,16.05308 -0.275,-0.0157 -5.225,-2.51043 -11,-5.54393 z"
       inkscape:connector-curvature="0" />
    <path
       id="ray11"
       style="fill:#000000"
       d="M 228.04899,189.23041 C 222.70374,180.66939 187.74978,125.86886 161.35035,84.660854 154.00766,73.199324 148,63.476773 148,63.055185 c 0,-0.421588 6.30463,-4.404471 14.01029,-8.850851 l 14.01029,-8.084327 2.1148,4.189996 c 1.16314,2.304499 4.02184,7.789997 6.35267,12.189997 5.07105,9.572841 13.87572,26.400576 22.76024,43.5 3.57211,6.875 14.65256,28.11739 24.62323,47.2053 C 241.84218,172.29322 250,188.09498 250,188.32034 c 0,0.38715 -15.64664,9.70172 -16.22703,9.66007 -0.15013,-0.0108 -2.72592,-3.94828 -5.72398,-8.75 z"
       inkscape:connector-curvature="0" />
  </g>
  <g
     id="title"
     transform="translate(-14,-15)">
    <path
       id="char0"
       style="fill:#000000"
       d="m 232,310.5 0,-15.5 2.5,0 c 2.41026,0 2.5,0.23333 2.5,6.5 l 0,6.5 8,0 8,0 0,-6.5 c 0,-6.26667 0.0897,-6.5 2.5,-6.5 l 2.5,0 0,15.5 0,15.5 -2.5,0 c -2.41026,0 -2.5,-0.23333 -2.5,-6.5 l 0,-6.5 -8,0 -8,0 0,6.5 c 0,6.26667 -0.0897,6.5 -2.5,6.5 l -2.5,0 0,-15.5 z"
       inkscape:connector-curvature="0" />
    <path
       id="char1"
       style="fill:#000000"
       d="m 269,310.5 0,-15.5 11,0 c 10.25766,0 11,0.13224 11,1.95956 0,1.76426 -0.82223,1.9885 -8.25,2.25 l -8.25,0.29044 0,4 0,4 7.25,0.29381 c 6.37019,0.25815 7.25,0.52588 7.25,2.20619 0,1.68031 -0.87981,1.94804 -7.25,2.20619 l -7.25,0.29381 0,4 0,4 8.25,0.29044 c 8.01843,0.28229 8.25,0.35948 8.25,2.75 l 0,2.45956 -11,0 -11,0 0,-15.5 z"
       inkscape:connector-curvature="0" />
    <path
       id="char2"
       style="fill:#000000"
       d="m 301,310.5362 0,-15.53621 2.47012,0 2.47013,0 0.27987,12.75 0.27988,12.75 7.31364,0.29509 c 6.89553,0.27823 7.29571,0.42115 7,2.5 -0.29556,2.07783 -0.87557,2.22141 -10.06364,2.49112 l -9.75,0.28621 0,-15.53621 z"
       inkscape:connector-curvature="0" />
    <path
       id="char3"
       style="fill:#000000"
       d="m 330,310.5 0,-15.5 2.5,0 2.5,0 0,15.5 0,15.5 -2.5,0 -2.5,0 0,-15.5 z"
       inkscape:connector-curvature="0" />
    <path
       id="char4"
       style="fill:#000000"
       d="m 360.03125,294.09375 c -5.14213,-0.0176 -8.56335,1.58586 -12,5.5 -6.94587,7.9109 -4.18635,20.70991 5.40625,25.0625 4.2149,1.91248 12.92524,1.18838 16.34375,-1.34375 C 374.35879,319.92187 377,315.15846 377,310.25 c 0,-9.32999 -5.44509,-15.29864 -14.65625,-16.0625 -0.8105,-0.0672 -1.57791,-0.0912 -2.3125,-0.0937 z m 0.25,4.90625 c 5.4264,0 9.08895,2.59291 10.71875,7.53125 1.34977,4.08983 0.0709,9.18962 -3,11.96875 -2.52489,2.285 -9.79684,2.93543 -12.875,1.15625 -5.81138,-3.35899 -6.96783,-12.4786 -2.21875,-17.5625 2.40749,-2.57723 3.67073,-3.09375 7.375,-3.09375 z"
       inkscape:connector-curvature="0" />
    <path
       id="char5"
       style="fill:#000000"
       d="M 392.77903,312.75 392.5,299.5 l -4.75,-0.30479 c -3.93428,-0.25245 -4.75,-0.63885 -4.75,-2.25 0,-1.81888 0.77934,-1.94521 12,-1.94521 11.21493,0 12,0.12708 12,1.9425 0,1.5704 -0.81413,2.00141 -4.25,2.25 l -4.25,0.3075 -0.27903,13.25 -0.27902,13.25 -2.44195,0 -2.44195,0 -0.27902,-13.25 z"
       inkscape:connector-curvature="0" />
    <path
       id="char6"
       style="fill:#000000"
       d="m 417,294.8125 0,15.59375 0,15.59375 2.4375,0 c 2.24778,0 2.47243,-0.42888 2.75,-5.25 0.29319,-5.09251 0.41952,-5.26391 3.5,-5.5625 2.83159,-0.27446 3.62038,0.29447 7.28125,5.25 3.37862,4.57347 4.61979,5.5625 7.0625,5.5625 1.63265,0 2.96875,-0.28619 2.96875,-0.625 0,-0.33882 -1.59715,-2.77147 -3.53125,-5.40625 l -3.5,-4.78125 3,-3.03125 C 441.42358,309.70142 442,308.32199 442,304.6875 c 0,-2.9052 -0.66386,-5.27682 -1.90625,-6.8125 -1.75162,-2.16513 -2.78757,-2.40599 -12.5,-2.71875 L 417,294.8125 z m 9.96875,4.21875 c 7.53483,-0.31562 11.73759,3.70024 8.53125,8.59375 -1.34573,2.05384 -2.32659,2.375 -7.5625,2.375 l -6.03125,0 0.28125,-5.25 c 0.2862,-4.97108 0.46531,-5.27971 3.21875,-5.59375 0.5306,-0.0605 1.06018,-0.10396 1.5625,-0.125 z"
       inkscape:connector-curvature="0" />
    <path
       id="char7"
       style="fill:#000000"
       d="m 466.6875,294 c -5.52481,-0.002 -9.6177,1.84156 -12.59375,5.625 -6.4148,8.15509 -3.89817,20.27164 5.125,24.71875 4.82188,2.37649 11.5476,2.09582 16.09375,-0.65625 5.58888,-3.3833 7.6795,-7.1282 7.6875,-13.78125 C 483.01148,300.14628 476.70587,294.003 466.6875,294 z m 0,4.84375 c 2.52554,-0.11208 5.05065,0.85719 7.34375,2.90625 5.80146,5.18405 4.3244,15.65097 -2.59375,18.28125 -4.93893,1.87777 -8.4333,1.16045 -12.03125,-2.4375 C 456.61895,314.80645 456,313.44314 456,310 c 0,-3.44314 0.61895,-4.80645 3.40625,-7.59375 2.25072,-2.25071 4.75571,-3.45042 7.28125,-3.5625 z"
       inkscape:connector-curvature="0" />
    <path
       id="char8"
       style="fill:#000000"
       d="m 496.875,293.9375 c -4.84256,0.006 -4.41489,2.52447 -4.65625,15.03125 -0.15329,7.94284 -0.0383,15.06113 0.25,15.8125 0.28832,0.75137 1.54129,1.20732 2.78125,1.03125 1.86412,-0.26471 2.31272,-1.01508 2.5625,-4.4375 l 0.28125,-4.15625 6.5,-0.6875 C 513.85555,315.53939 516.5,313.08609 516.5,305.5 c 0,-7.84746 -2.57975,-10.04111 -12.8125,-11 -3.00223,-0.28133 -5.19831,-0.56443 -6.8125,-0.5625 z m 1.125,4.8125 4.96875,0.46875 c 2.73175,0.26249 5.65675,1.05017 6.5,1.75 2.3672,1.9646 1.95754,7.61609 -0.6875,9.46875 -1.22237,0.85618 -4.14737,1.5625 -6.5,1.5625 L 498,312 l 0,-6.625 0,-6.625 z"
       inkscape:connector-curvature="0" />
    <path
       id="char9"
       style="fill:#000000"
       d="m 526,310.5 0,-15.5 11,0 c 10.25766,0 11,0.13224 11,1.95956 0,1.76426 -0.82223,1.9885 -8.25,2.25 l -8.25,0.29044 0,4 0,4 7.25,0.29381 c 6.37019,0.25815 7.25,0.52588 7.25,2.20619 0,1.68031 -0.87981,1.94804 -7.25,2.20619 l -7.25,0.29381 -0.32418,3.39514 c -0.42353,4.4355 0.77186,5.07096 9.57418,5.08955 7.06258,0.0149 7.25,0.0799 7.25,2.51531 l 0,2.5 -11,0 -11,0 0,-15.5 z"
       inkscape:connector-curvature="0" />
  </g>
</svg>
